<?xml version="1.0" encoding="UTF-8" standalone="no"?><!DOCTYPE svg PUBLIC "-//W3C//DTD SVG 1.1//EN" "http://www.w3.org/Graphics/SVG/1.1/DTD/svg11.dtd"><svg width="100%" height="100%" viewBox="0 0 512 512" version="1.1" xmlns="http://www.w3.org/2000/svg" xmlns:xlink="http://www.w3.org/1999/xlink" xml:space="preserve" xmlns:serif="http://www.serif.com/" style="fill-rule:evenodd;clip-rule:evenodd;stroke-linejoin:round;stroke-miterlimit:2;"><circle cx="256" cy="256" r="256" style="fill:#2a2a4a;"/><g id="it-246.png"><path d="M407.109,158.177c-0.547,25.658 -12.751,35.271 -27.861,50.381c-177.927,177.927 -177.767,178.18 -182.105,181.094c-10.724,7.204 -15.77,7.88 -37.204,10.996c-3.717,0.54 -44.639,6.49 -46.505,6.477c-3.064,-0.022 -9.077,-2.236 -8.505,-9.806c0.024,-0.323 8.452,-60.804 9.409,-64.791c3.995,-16.642 11.279,-21.991 33.443,-44.155c155.256,-155.256 169.096,-169.555 173.841,-173.021c33.83,-24.712 84.244,-3.807 85.487,42.826Zm-101.893,96.846c-104.767,104.767 -104.598,105.131 -106.028,105.56c-1.525,0.458 -1.386,-0.483 -34.111,-33.142c-13.457,-13.429 -14.029,-13.514 -13.54,-15.096c0.275,-0.89 142.283,-142.538 154.682,-154.906c2.432,-2.426 3.02,-3.678 5.458,-1.25c2.647,2.635 44.882,44.837 45.103,45.157c1.202,1.742 -1.249,3.264 -9.587,11.671c-20.92,21.095 -20.978,21.006 -41.977,42.006Zm81.833,-90.498c-1.057,4.431 -1.448,10.744 -13.805,22.489c-2.023,1.923 -3.111,0.059 -7.167,-3.977c-2.235,-2.224 -41.391,-41.399 -41.488,-41.522c-1.098,-1.386 -0.637,-1.985 4.943,-7.33c22.15,-21.219 57.451,-6.289 58.104,23.988c0.069,3.214 -0.163,3.172 -0.588,6.353Zm-254.693,178.013c0.19,-1.209 2.434,-15.45 5.893,-14.115c0.419,0.162 0.371,0.234 29.422,29.285c13.648,13.648 16.082,15.597 15.948,16.791c-0.091,0.808 -3.522,3.644 -15.446,5.276c-25.187,3.448 -25.163,3.598 -27.357,3.862c-10.914,1.31 -12.925,2.487 -14.046,1.174c-0.697,-0.816 1.771,-14.392 5.586,-42.273Z" style="fill:#fff;fill-opacity:0.99;"/></g></svg>