<?xml version="1.0" encoding="UTF-8" standalone="no"?>
<!DOCTYPE svg PUBLIC "-//W3C//DTD SVG 1.1//EN" "http://www.w3.org/Graphics/SVG/1.1/DTD/svg11.dtd">
<svg width="100%" height="100%" viewBox="0 0 303 328" version="1.1" xmlns="http://www.w3.org/2000/svg" xmlns:xlink="http://www.w3.org/1999/xlink" xml:space="preserve" xmlns:serif="http://www.serif.com/" style="fill-rule:evenodd;clip-rule:evenodd;stroke-linejoin:round;stroke-miterlimit:2;">
    <g transform="matrix(1.001156,0,0,1.020893,-5.975258,-6.852989)">
        <path d="M303,35.2L303,299.5C303,315.2 290,328 273.9,328L41.3,328C25.2,328 12.2,315.2 12.2,299.5L12.2,35.2C12.2,19.5 25.2,6.7 41.3,6.7L273.9,6.7C290,6.7 303,19.5 303,35.2Z" style="fill:rgb(42,42,75);"/>
    </g>
    <g transform="matrix(1.033911,0,0,1.033911,10.698317,-24.466047)">
        <circle cx="35.8" cy="62" r="15.1" style="fill:rgb(2,160,255);"/>
    </g>
    <g transform="matrix(1,0,0,1,22.163564,60.499997)">
        <text x="56.7px" y="35px" style="font-family:'Mojangles';font-size:21.3px;fill:white;">Midpoint</text>
    </g>
    <g transform="matrix(1,0,0,1,22.163564,10.999998)">
        <text x="56.7px" y="35px" style="font-family:'Mojangles';font-size:21.3px;fill:white;">Main</text>
    </g>
    <g transform="matrix(1.033911,0,0,1.033911,10.698317,24.809763)">
        <circle cx="35.8" cy="62" r="15.1" style="fill:rgb(255,136,0);"/>
    </g>
    <g transform="matrix(1,0,0,1,22.163564,109.999997)">
        <text x="56.7px" y="35px" style="font-family:'Mojangles';font-size:21.3px;fill:white;">Dependency</text>
    </g>
    <g transform="matrix(1.033911,0,0,1.033911,10.698317,74.085573)">
        <circle cx="35.8" cy="62" r="15.1" style="fill:rgb(255,208,8);"/>
    </g>
    <g transform="matrix(1,0,0,1,22.163564,159.499996)">
        <text x="56.7px" y="35px" style="font-family:'Mojangles';font-size:21.3px;fill:white;">Addon</text>
    </g>
    <g transform="matrix(1.033911,0,0,1.033911,10.698317,123.361382)">
        <circle cx="35.8" cy="62" r="15.1" style="fill:rgb(199,164,243);"/>
    </g>
    <g transform="matrix(1,0,0,1,22.163564,208.999995)">
        <text x="56.7px" y="35px" style="font-family:'Mojangles';font-size:21.3px;fill:white;">Orphan</text>
    </g>
    <g transform="matrix(1.033911,0,0,1.033911,10.698317,172.637192)">
        <circle cx="35.8" cy="62" r="15.1" style="fill:rgb(236,36,14);"/>
    </g>
    <g transform="matrix(1,0,0,1,22.163564,258.499994)">
        <text x="56.7px" y="35px" style="font-family:'Mojangles';font-size:21.3px;fill:white;">Checked orphan</text>
    </g>
    <g transform="matrix(1.033911,0,0,1.033911,10.698317,221.913002)">
        <circle cx="35.8" cy="62" r="15.1" style="fill:rgb(46,204,113);"/>
    </g>
</svg>
