<?xml version="1.0" encoding="UTF-8" standalone="no"?><!DOCTYPE svg PUBLIC "-//W3C//DTD SVG 1.1//EN" "http://www.w3.org/Graphics/SVG/1.1/DTD/svg11.dtd"><svg width="100%" height="100%" viewBox="0 0 512 512" version="1.1" xmlns="http://www.w3.org/2000/svg" xmlns:xlink="http://www.w3.org/1999/xlink" xml:space="preserve" xmlns:serif="http://www.serif.com/" style="fill-rule:evenodd;clip-rule:evenodd;stroke-linejoin:round;stroke-miterlimit:2;"><circle cx="256" cy="256" r="256" style="fill:#2a2a4a;"/><g id="_5040.png" serif:id="5040.png"><path d="M129.91,366.858c0.33,0.239 0.659,0.478 0.989,0.717c19.85,3.148 19.762,3.405 39.577,6.904c14.109,2.492 15.888,24.131 0.832,27.764c-1.276,0.308 -3.811,0.92 -16.338,-1.47c-32.351,-6.171 -63.157,-11.512 -68.657,-12.466c-1.543,-0.268 -13.317,-2.309 -12.955,-14.672c0.028,-0.962 11.239,-63.654 14.741,-82.192c2.616,-13.852 20.93,-15.778 26.865,-3.641c1.635,3.343 2.383,4.873 -5.58,46.179c-1.66,8.609 -2.923,12.957 -0.022,11.248c28.515,-16.801 71.17,-41.084 92.234,-53.381c21.452,-12.523 39.115,-22.098 39.683,-23.442c0.86,-2.036 -0.02,-137.964 0.464,-160.578c0.003,-0.158 0.044,-2.03 -1.698,-1.017c-0.173,0.1 -27.018,27.247 -29.364,29.62c-16.449,16.634 -33.325,-3.157 -23.489,-16.798c0.599,-0.831 58.315,-58.525 59.872,-59.889c4.561,-3.997 13.163,-4.113 17.889,-0.002c3.938,3.426 52.553,52.352 57.1,56.927c12.768,12.85 2.311,24.513 -6.594,25.901c-8.704,1.356 -10.98,-3.332 -34.415,-26.465c-7.769,-7.669 -10.849,-11.858 -10.768,-8.277c0.488,21.558 -0.416,158.52 0.48,160.574c0.631,1.446 23.289,13.757 28.46,16.967c6.773,4.205 44.494,25.758 48.375,27.975c40.129,22.928 39.986,23.166 43.505,25.105c11.517,6.347 13.098,8.304 13.519,6.264c0.011,-0.053 -8.279,-45.4 -8.557,-47.485c-2.108,-15.855 11.924,-17.949 15.137,-17.567c12.449,1.481 13.414,14.843 13.897,17.538c8.161,45.526 8.25,45.48 8.886,49.449c0.888,5.542 3.7,21.411 4.471,25.029c0.732,3.431 -0.405,9.567 -5.136,13.457c-1.965,1.616 -3.627,2.983 -30.902,7.495c-17.513,2.897 -38.98,7.092 -56.973,10.072c-6.308,1.045 -16.488,-5.161 -15.309,-15.497c1.642,-14.404 13.702,-12.37 38.462,-17.624c12.633,-2.68 13.426,-1.623 13.515,-2.722c0.065,-0.8 0.018,-0.806 -0.639,-1.185c-20.434,-11.758 -40.869,-23.517 -61.303,-35.275c-33.422,-19.276 -61.948,-35.807 -62.652,-36.122c-2.109,-0.942 -2.375,-0.376 -29.28,15.172c-37.272,21.539 -37.234,21.559 -40.491,23.401c-18.312,10.356 -50.29,29.268 -56.675,32.51c-1.671,0.849 -1.133,1.462 -1.152,1.498Z" style="fill:#fff;fill-opacity:1;"/></g></svg>